<?xml version="1.0" standalone="no"?>
<!DOCTYPE svg PUBLIC "-//W3C//DTD SVG 20010904//EN"
 "http://www.w3.org/TR/2001/REC-SVG-20010904/DTD/svg10.dtd">
<svg version="1.0" xmlns="http://www.w3.org/2000/svg"
 width="504.000000pt" height="504.000000pt" viewBox="0 0 504.000000 504.000000"
 preserveAspectRatio="xMidYMid meet">
<metadata>
Created by potrace 1.14, written by Peter Selinger 2001-2017
</metadata>
<g transform="translate(0.000000,504.000000) scale(0.100000,-0.100000)"
fill="#000000" stroke="none">
<path d="M2240 4518 c0 -4 -7 -5 -15 -2 -8 4 -21 1 -29 -5 -7 -6 -15 -9 -17
-6 -3 2 -22 0 -42 -6 -20 -5 -39 -10 -42 -10 -12 0 -164 -81 -201 -106 -126
-86 -202 -166 -277 -291 -66 -110 -98 -204 -114 -342 -9 -84 -8 -115 12 -290
5 -47 16 -104 21 -109 2 -2 -1 -10 -7 -17 -8 -10 -16 -11 -29 -4 -28 15 -69 8
-76 -13 -12 -39 -5 -111 21 -195 29 -96 62 -190 73 -206 3 -6 7 -17 8 -23 3
-18 29 -42 55 -51 18 -7 26 -25 41 -83 10 -41 20 -78 22 -84 1 -5 8 -29 15
-53 17 -60 85 -190 121 -232 16 -19 30 -38 30 -42 0 -4 -10 -17 -23 -30 -37
-36 -54 -69 -68 -131 -10 -47 -18 -61 -40 -72 -15 -8 -33 -20 -41 -27 -25 -23
-55 -37 -150 -69 -51 -17 -97 -35 -103 -39 -10 -7 -152 -63 -170 -66 -5 -1
-23 -8 -40 -15 -16 -6 -34 -13 -40 -14 -5 -2 -48 -13 -95 -25 -74 -20 -112
-34 -215 -80 -38 -17 -110 -47 -145 -60 -49 -19 -100 -52 -142 -92 -20 -18
-58 -54 -85 -80 -42 -38 -95 -108 -99 -128 0 -3 -9 -23 -19 -45 -21 -47 -74
-225 -81 -275 -3 -19 -7 -46 -10 -60 -2 -14 -7 -41 -10 -60 -3 -19 -8 -48 -11
-65 -3 -16 -6 -39 -8 -50 -1 -11 -5 -40 -9 -65 -3 -25 -8 -62 -10 -82 -3 -21
-7 -41 -9 -45 -3 -4 -8 -32 -12 -62 -4 -30 -9 -63 -11 -75 -2 -12 -7 -37 -10
-56 -3 -19 -7 -42 -10 -50 -3 -8 -8 -35 -11 -60 -6 -46 -10 -71 -13 -80 -1 -3
-2 -9 -1 -14 1 -5 -3 -32 -9 -60 -6 -28 -13 -71 -16 -94 -2 -24 -7 -48 -10
-54 -4 -6 -8 -24 -10 -39 l-4 -29 2457 2 2456 3 3 23 c2 12 -1 22 -7 22 -5 0
-8 3 -5 8 5 9 -24 134 -52 217 -11 33 -28 86 -38 118 -10 31 -22 57 -27 57 -4
0 -6 4 -3 8 4 7 -9 85 -39 222 -2 8 -4 15 -5 15 -1 0 -3 11 -5 25 -8 71 -19
120 -38 170 -12 30 -22 60 -23 65 -3 17 -63 185 -69 195 -3 6 -8 18 -10 27 -6
28 -109 262 -147 333 -54 101 -62 114 -75 123 -7 4 -13 13 -13 20 0 11 -38 48
-114 111 -17 14 -46 33 -65 43 -20 10 -38 21 -41 25 -5 6 -92 43 -115 48 -5 1
-14 4 -20 6 -105 39 -372 111 -440 120 -16 2 -41 8 -55 13 -14 6 -61 19 -105
31 -44 11 -87 23 -95 27 -22 9 -49 16 -115 28 -11 2 -21 4 -22 5 -2 2 -6 3
-10 5 -5 1 -15 4 -23 7 -8 3 -35 12 -60 19 -63 18 -129 47 -143 61 -7 7 -25
33 -42 58 -16 25 -42 60 -57 78 -15 18 -28 38 -28 44 0 6 19 50 42 97 51 105
57 120 73 188 30 123 42 163 48 169 4 4 2 13 -4 20 -7 9 -6 15 3 20 13 8 18
10 37 13 25 3 54 64 66 141 1 8 5 22 8 30 8 19 36 143 43 190 3 19 8 37 10 39
2 2 -1 12 -7 22 -5 11 -6 19 -2 19 16 0 6 53 -12 66 -15 11 -24 10 -56 -7 -37
-19 -45 -16 -40 14 4 23 12 79 20 138 9 68 7 263 -3 309 -3 14 -9 40 -12 58
-3 18 -10 35 -15 38 -5 3 -9 15 -9 26 0 25 -59 136 -103 193 -47 61 -126 137
-190 184 -86 63 -233 135 -314 155 -74 18 -223 28 -223 14z"/>
</g>
</svg>
